<?xml version="1.0" encoding="UTF-8"?>
<svg id="Layer_1" data-name="Layer 1" xmlns="http://www.w3.org/2000/svg" viewBox="0 0 371.74 221.62">
  <defs>
    <style>
      .cls-1 {
        fill: #1e5aff;
      }

      .cls-2 {
        fill: #2c2f33;
      }
    </style>
  </defs>
  <path class="cls-1" d="M363.01,26.05c0,7.36-4.24,13.72-10.41,16.78-2.5,1.25-5.33,1.95-8.32,1.95s-5.82-.69-8.32-1.95c-4.91-2.44-8.6-6.97-9.9-12.43-.34-1.4-.52-2.85-.52-4.35,0-1.3.14-2.58.39-3.81.95-4.57,3.56-8.55,7.18-11.23h0c3.12-2.32,6.97-3.69,11.16-3.69,9.04,0,16.58,6.4,18.34,14.92.25,1.23.39,2.5.39,3.81Z"/>
  <path class="cls-1" d="M81.61,81.02c-.03.11-.07.22-.11.33l-47.76,131.22h-12.44c-9.69,0-16.44-9.64-13.12-18.74l37.32-102.51c1.76-4.84-1.83-9.97-6.98-9.97l6.82-18.75h23.03c9.58,0,16.29,9.41,13.24,18.42Z"/>
  <path class="cls-1" d="M187.19,81.35h0s-20.46,56.24-20.46,56.24l-6.82,18.75h-12.43c-9.7,0-16.45-9.64-13.13-18.75l16.84-46.26c1.77-4.85-1.82-9.98-6.98-9.98l6.83-18.75h23.02c9.7,0,16.45,9.63,13.13,18.75Z"/>
  <path class="cls-1" d="M332.61,62.6c9.7,0,16.45,9.64,13.13,18.75l-20.46,56.23-6.82,18.75h-12.43c-9.7,0-16.45-9.64-13.13-18.75l16.84-46.26c1.77-4.85-1.82-9.97-6.98-9.97l6.83-18.75h23.02Z"/>
  <path class="cls-1" d="M240.04,81.35h0s-20.46,56.24-20.46,56.24l-6.82,18.75h-12.43c-9.7,0-16.45-9.64-13.13-18.75l16.84-46.26c1.77-4.85-1.82-9.98-6.98-9.98h-9.87l3.48-9.56c2.05-5.52,7.32-9.19,13.22-9.19h23.02c9.7,0,16.45,9.63,13.13,18.75Z"/>
  <path class="cls-1" d="M292.89,81.36l-20.46,56.23-6.82,18.75h-12.43c-9.7,0-16.45-9.64-13.13-18.75l16.84-46.26c1.77-4.85-1.82-9.98-6.98-9.98h-9.87l3.44-9.47c2.03-5.57,7.33-9.28,13.26-9.28h23.02c9.7,0,16.45,9.64,13.13,18.76Z"/>
  <path class="cls-1" d="M134.34,81.35h0s-20.46,56.24-20.46,56.24l-6.82,18.75h-12.43c-9.7,0-16.45-9.64-13.13-18.75l16.84-46.26c1.77-4.85-1.82-9.98-6.98-9.98h-9.86c.04-.11.08-.22.11-.33l3.32-9.14c2.03-5.57,7.33-9.28,13.26-9.28h23.02c9.7,0,16.45,9.63,13.13,18.75Z"/>
  <path class="cls-1" d="M81.61,81.02c-.03.11-.07.22-.11.33h0l.12-.33Z"/>
  <g>
    <g>
      <path class="cls-2" d="M70.4,191.72v-6.35h8.52v-2.15h-8.52v-6.09h10.95v-2.15h-13.24v18.87h13.67v-2.14h-11.38Z"/>
      <path class="cls-2" d="M97.65,192.2c-.8,0-1.09-.34-1.09-1.04v-7.03c0-3.32-2.37-4.87-5.63-4.87-2.78,0-5.03,1.38-5.78,3.49l1.69,1.23c.77-1.8,2.2-2.71,4.09-2.71,2.15,0,3.35,1.25,3.35,3.15v.8l-3.8.63c-3.69.63-5.58,2.32-5.58,4.46,0,1.87,1.15,3.05,2.82,3.55.62.19,1.31.29,2.04.29.65,0,1.3-.1,1.91-.29,1.12-.33,2.1-.96,2.69-1.83.15.96.54,1.52,1.13,1.83.4.21.88.29,1.45.29.71,0,1.31-.14,1.71-.29l.14-1.8c-.34.09-.77.14-1.14.14ZM94.27,189.05c0,1.88-2.12,3.09-4.4,3.09-1.64,0-2.61-.63-2.61-1.83,0-1.34,1.28-2.17,3.8-2.63l3.2-.6v1.98Z"/>
      <path class="cls-2" d="M107.51,185.71c-2.91-.48-3.86-1.11-3.86-2.35,0-1.06,1.44-2.08,3.35-2.08,1.81,0,3.09.68,3.72,2.57l1.95-1.14c-.81-2.34-2.61-3.43-5.67-3.43-3.49,0-5.63,1.98-5.63,4.29s1.48,3.52,5.54,4.27c2.86.51,3.75,1.14,3.75,2.2,0,1.17-1.11,2.12-3.46,2.12-2.05,0-3.83-.78-4.52-2.52l-1.86,1.28c.76,1.54,2.18,2.51,3.87,2.95.71.19,1.48.29,2.28.29.87,0,1.65-.1,2.36-.29,2.27-.58,3.62-2.04,3.62-3.95,0-2.35-1.44-3.55-5.44-4.2Z"/>
      <path class="cls-2" d="M126.01,179.56l-3.35,9.04-1.03,2.82-.88-2.54-3.57-9.33h-2.61l5.98,14.27v.03s-.75,1.83-.75,1.83c-.71,1.88-1.6,2.31-2.6,2.31-.8,0-1.66-.23-2.32-1.14l-.8,1.94c.8.87,1.71,1.21,3.15,1.21,2.11,0,3.4-.94,4.52-3.75l.97-2.41,5.75-14.3h-2.46Z"/>
    </g>
    <g>
      <path class="cls-2" d="M149.84,175.24c-.64-.17-1.35-.26-2.1-.26h-6.66v18.87h2.29v-7.38h4.37c3.8,0,6.34-2.2,6.34-5.74,0-2.84-1.64-4.82-4.24-5.5ZM147.4,184.34h-4.03v-7.21h4.03c2.97,0,4.29,1.26,4.29,3.6s-1.32,3.6-4.29,3.6Z"/>
      <path class="cls-2" d="M173.24,174.98l-.1.26-4.02,11.24-1.45,4.69h-.06l-1.44-4.72-4.05-11.21-.1-.26h-3.52v18.87h2.18v-11.87l-.26-4.97h.03l6.21,16.84h1.94l6.21-16.84h.03l-.26,4.97v11.87h2.17v-18.87h-3.52Z"/>
      <path class="cls-2" d="M182.94,174.98v18.87h2.28v-18.87h-2.28Z"/>
    </g>
    <path class="cls-2" d="M207.81,183.39c-3.97-.68-5.23-1.57-5.23-3.35s1.65-3.19,4.66-3.19c2.78,0,4.15.97,5.3,3.45l1.97-1.6c-.92-1.67-2.22-2.83-3.94-3.46-.98-.36-2.09-.54-3.36-.54-1.2,0-2.26.19-3.19.54-2.44.9-3.85,2.86-3.85,5.06,0,2.89,1.84,4.44,6.92,5.32,3.97.68,5.2,1.63,5.2,3.26,0,2.03-1.94,3.12-4.86,3.12-3.09,0-5.03-1.38-6.03-3.55l-1.98,1.6c1,1.79,2.78,3.23,5.33,3.8.79.19,1.66.29,2.61.29s1.8-.1,2.59-.29c2.91-.68,4.71-2.54,4.71-5.09,0-2.92-1.8-4.52-6.86-5.38Z"/>
    <path class="cls-2" d="M225.09,179.27c-4.32,0-6.92,2.8-6.92,7.44,0,3.76,1.72,6.32,4.68,7.15.68.19,1.44.29,2.24.29s1.56-.1,2.24-.29c2.96-.83,4.68-3.38,4.68-7.15,0-4.63-2.61-7.44-6.92-7.44ZM225.09,192.17c-2.89,0-4.63-2.06-4.63-5.47s1.74-5.46,4.63-5.46,4.63,2.05,4.63,5.46-1.74,5.47-4.63,5.47Z"/>
    <path class="cls-2" d="M240.16,191.95c-1.18,0-1.55-.47-1.55-1.92v-17.04h-2.28v17.32c0,1.88.58,3.05,1.79,3.55.46.19,1.01.29,1.64.29s1.26-.1,1.8-.29c.11-.03.22-.08.31-.11l.37-2.2c-.83.31-1.31.4-2.08.4Z"/>
    <path class="cls-2" d="M255.28,179.56v7.78c0,3.38-2.15,4.81-4.58,4.81-2.05,0-3.37-.89-3.37-3.83v-8.76h-2.29v9.36c0,2.83,1.37,4.35,3.24,4.94.63.2,1.3.29,2.02.29.81,0,1.56-.09,2.23-.29,1.25-.36,2.23-1.06,2.89-2.17l.14,2.17h2v-14.3h-2.28Z"/>
    <path class="cls-2" d="M270.84,190.94c-.66.67-1.41,1.06-2.43,1.06-1.25,0-2.15-.69-2.15-2.09v-8.38h5.3v-1.98h-5.3v-4.06l-2.28.63v3.43h-2.86v1.98h2.86v8.78c0,.92.22,1.66.57,2.22.4.65.99,1.07,1.68,1.32.52.2,1.11.29,1.72.29.7,0,1.34-.1,1.91-.29.7-.22,1.29-.56,1.78-1l-.8-1.92Z"/>
    <path class="cls-2" d="M274.87,179.56v14.3h2.28v-14.3h-2.28ZM276.01,173.39c-1.03,0-1.72.68-1.72,1.71,0,.05,0,.1,0,.14.06.95.73,1.58,1.71,1.58s1.64-.63,1.7-1.58c0-.05,0-.09,0-.14,0-1.03-.68-1.71-1.71-1.71Z"/>
    <path class="cls-2" d="M288.5,179.27c-4.32,0-6.92,2.8-6.92,7.44,0,3.76,1.72,6.32,4.68,7.15.68.19,1.44.29,2.24.29s1.56-.1,2.24-.29c2.96-.83,4.68-3.38,4.68-7.15,0-4.63-2.61-7.44-6.92-7.44ZM288.5,192.17c-2.89,0-4.63-2.06-4.63-5.47s1.74-5.46,4.63-5.46,4.63,2.05,4.63,5.46-1.74,5.47-4.63,5.47Z"/>
    <path class="cls-2" d="M312.25,183.37h0c-.05-.27-.11-.5-.19-.72-.76-2.28-2.84-3.38-5.26-3.38-1.98,0-3.8.71-4.8,2.52l-.14-2.23h-2.01v14.3h2.29v-7.61c0-3.66,2.34-4.97,4.43-4.97,1.97,0,3.52,1.06,3.52,4.23v8.35h2.28v-9.15c0-.48-.04-.93-.12-1.34Z"/>
    <path class="cls-2" d="M322.96,185.71c-2.92-.48-3.86-1.11-3.86-2.35,0-1.06,1.43-2.08,3.35-2.08,1.8,0,3.09.68,3.72,2.57l1.95-1.14c-.81-2.34-2.61-3.43-5.67-3.43-3.49,0-5.63,1.98-5.63,4.29s1.48,3.52,5.54,4.27c2.86.51,3.75,1.14,3.75,2.2,0,1.17-1.11,2.12-3.46,2.12-2.06,0-3.83-.78-4.52-2.52l-1.86,1.28c.76,1.54,2.18,2.51,3.86,2.95.72.19,1.5.29,2.29.29.87,0,1.65-.1,2.36-.29,2.27-.58,3.62-2.04,3.62-3.95,0-2.35-1.44-3.55-5.44-4.2Z"/>
  </g>
</svg>