<?xml version="1.0" encoding="UTF-8"?>
<svg id="Layer_1" data-name="Layer 1" xmlns="http://www.w3.org/2000/svg" viewBox="0 0 1225.53 243.06">
  <defs>
    <style>
      .cls-1 {
        fill: #1e5aff;
      }

      .cls-2 {
        fill: #2c2f33;
      }
    </style>
  </defs>
  <g>
    <g>
      <path class="cls-2" d="M419.92,152.91v-18.91h25.36v-6.4h-25.36v-18.12h32.61v-6.4h-39.43v56.19h40.71v-6.37h-33.88Z"/>
      <path class="cls-2" d="M501.04,154.36c-2.38,0-3.26-1.02-3.26-3.09v-20.92c0-9.88-7.05-14.49-16.76-14.49-8.27,0-14.97,4.1-17.21,10.39l5.04,3.65c2.29-5.35,6.54-8.07,12.17-8.07,6.4,0,9.96,3.74,9.96,9.37v2.38l-11.32,1.87c-10.98,1.87-16.62,6.91-16.62,13.28,0,5.58,3.43,9.09,8.41,10.56,1.84.57,3.91.85,6.09.85,1.92,0,3.88-.28,5.69-.85,3.34-.99,6.26-2.86,8.01-5.43.45,2.86,1.61,4.53,3.37,5.43,1.19.62,2.63.85,4.3.85,2.12,0,3.91-.42,5.1-.85l.42-5.35c-1.02.25-2.29.42-3.4.42ZM490.99,144.99c0,5.6-6.31,9.2-13.11,9.2-4.87,0-7.76-1.87-7.76-5.46,0-3.99,3.82-6.45,11.32-7.84l9.54-1.78v5.89Z"/>
      <path class="cls-2" d="M530.4,135.02c-8.66-1.44-11.49-3.31-11.49-6.99,0-3.14,4.27-6.2,9.96-6.2,5.38,0,9.2,2.04,11.07,7.64l5.8-3.4c-2.41-6.96-7.76-10.22-16.87-10.22-10.39,0-16.76,5.89-16.76,12.77s4.42,10.47,16.5,12.71c8.52,1.53,11.15,3.4,11.15,6.54,0,3.48-3.31,6.31-10.3,6.31-6.11,0-11.41-2.32-13.45-7.5l-5.55,3.82c2.26,4.59,6.48,7.47,11.52,8.77,2.12.57,4.42.85,6.79.85,2.58,0,4.93-.28,7.02-.85,6.76-1.73,10.78-6.09,10.78-11.75,0-6.99-4.27-10.56-16.19-12.51Z"/>
      <path class="cls-2" d="M585.48,116.71l-9.96,26.92-3.06,8.41-2.63-7.56-10.64-27.77h-7.76l17.8,42.49-.03.09-2.21,5.46c-2.12,5.6-4.76,6.88-7.73,6.88-2.38,0-4.95-.68-6.91-3.4l-2.38,5.77c2.38,2.58,5.09,3.59,9.37,3.59,6.28,0,10.13-2.8,13.45-11.15l2.89-7.16,17.13-42.57h-7.33Z"/>
    </g>
    <g>
      <path class="cls-2" d="M656.45,103.86c-1.9-.51-4.02-.76-6.26-.76h-19.84v56.19h6.82v-21.97h13.02c11.32,0,18.88-6.54,18.88-17.1,0-8.46-4.87-14.35-12.62-16.36ZM649.17,130.95h-12v-21.46h12c8.83,0,12.77,3.74,12.77,10.73s-3.93,10.73-12.77,10.73Z"/>
      <path class="cls-2" d="M726.11,103.09l-.28.76-11.97,33.46-4.33,13.95h-.17l-4.27-14.04-12.06-33.37-.28-.76h-10.47v56.19h6.48v-35.33l-.76-14.8h.08l18.48,50.13h5.77l18.48-50.13h.09l-.76,14.8v35.33h6.45v-56.19h-10.47Z"/>
      <path class="cls-2" d="M754.98,103.09v56.19h6.79v-56.19h-6.79Z"/>
    </g>
    <path class="cls-2" d="M829.03,128.12c-11.83-2.04-15.57-4.67-15.57-9.96s4.93-9.51,13.87-9.51c8.27,0,12.34,2.89,15.77,10.28l5.86-4.76c-2.75-4.98-6.62-8.44-11.72-10.3-2.92-1.08-6.23-1.61-9.99-1.61-3.57,0-6.74.57-9.48,1.61-7.27,2.69-11.46,8.52-11.46,15.06,0,8.61,5.46,13.22,20.61,15.85,11.83,2.04,15.48,4.84,15.48,9.71,0,6.03-5.77,9.28-14.46,9.28-9.2,0-14.97-4.1-17.95-10.56l-5.89,4.76c2.97,5.32,8.27,9.62,15.88,11.32,2.35.57,4.95.85,7.78.85s5.35-.28,7.7-.85c8.66-2.01,14.01-7.56,14.01-15.14,0-8.69-5.35-13.45-20.44-16.02Z"/>
    <path class="cls-2" d="M880.46,115.86c-12.85,0-20.61,8.35-20.61,22.14,0,11.21,5.12,18.82,13.93,21.29,2.04.57,4.27.85,6.68.85s4.64-.28,6.68-.85c8.8-2.46,13.93-10.08,13.93-21.29,0-13.79-7.76-22.14-20.61-22.14ZM880.46,154.27c-8.61,0-13.79-6.14-13.79-16.28s5.18-16.25,13.79-16.25,13.78,6.11,13.78,16.25-5.18,16.28-13.78,16.28Z"/>
    <path class="cls-2" d="M925.33,153.59c-3.51,0-4.61-1.39-4.61-5.72v-50.73h-6.79v51.57c0,5.6,1.73,9.09,5.32,10.56,1.36.57,3,.85,4.9.85s3.74-.28,5.35-.85c.34-.09.65-.23.93-.34l1.1-6.54c-2.46.93-3.91,1.19-6.2,1.19Z"/>
    <path class="cls-2" d="M970.37,116.71v23.15c0,10.05-6.4,14.32-13.64,14.32-6.11,0-10.02-2.66-10.02-11.41v-26.07h-6.82v27.85c0,8.44,4.08,12.96,9.65,14.72,1.87.59,3.88.85,6,.85,2.41,0,4.64-.26,6.65-.85,3.71-1.08,6.65-3.14,8.61-6.45l.42,6.45h5.94v-42.57h-6.79Z"/>
    <path class="cls-2" d="M1016.67,150.59c-1.95,1.98-4.19,3.17-7.25,3.17-3.74,0-6.4-2.07-6.4-6.23v-24.94h15.77v-5.89h-15.77v-12.09l-6.79,1.87v10.22h-8.52v5.89h8.52v26.13c.03,2.75.65,4.95,1.7,6.62,1.19,1.92,2.94,3.2,5.01,3.93,1.56.59,3.31.85,5.12.85,2.09,0,3.99-.28,5.69-.85,2.09-.65,3.85-1.67,5.29-2.97l-2.38-5.72Z"/>
    <path class="cls-2" d="M1028.68,116.71v42.57h6.79v-42.57h-6.79ZM1032.07,98.34c-3.06,0-5.12,2.04-5.12,5.1,0,.14,0,.28.03.42.17,2.83,2.18,4.7,5.09,4.7s4.9-1.87,5.07-4.7c.03-.14.03-.28.03-.42,0-3.06-2.04-5.1-5.1-5.1Z"/>
    <path class="cls-2" d="M1069.27,115.86c-12.85,0-20.61,8.35-20.61,22.14,0,11.21,5.12,18.82,13.93,21.29,2.04.57,4.27.85,6.68.85s4.64-.28,6.68-.85c8.8-2.46,13.93-10.08,13.93-21.29,0-13.79-7.76-22.14-20.61-22.14ZM1069.27,154.27c-8.61,0-13.79-6.14-13.79-16.28s5.18-16.25,13.79-16.25,13.79,6.11,13.79,16.25-5.18,16.28-13.79,16.28Z"/>
    <path class="cls-2" d="M1139.98,128.06v-.03c-.14-.76-.34-1.47-.57-2.12-2.26-6.79-8.46-10.05-15.65-10.05-5.89,0-11.32,2.12-14.29,7.5l-.42-6.65h-5.97v42.57h6.82v-22.65c0-10.9,6.96-14.8,13.19-14.8,5.86,0,10.47,3.14,10.47,12.6v24.85h6.79v-27.23c0-1.42-.11-2.77-.37-3.99Z"/>
    <path class="cls-2" d="M1171.85,135.02c-8.69-1.44-11.49-3.31-11.49-6.99,0-3.14,4.25-6.2,9.96-6.2,5.35,0,9.2,2.04,11.07,7.64l5.8-3.4c-2.41-6.96-7.76-10.22-16.87-10.22-10.39,0-16.76,5.89-16.76,12.77s4.42,10.47,16.5,12.71c8.52,1.53,11.15,3.4,11.15,6.54,0,3.48-3.31,6.31-10.3,6.31-6.14,0-11.41-2.32-13.45-7.5l-5.55,3.82c2.26,4.59,6.48,7.47,11.49,8.77,2.15.57,4.47.85,6.82.85,2.58,0,4.93-.28,7.02-.85,6.77-1.73,10.78-6.09,10.78-11.75,0-6.99-4.27-10.56-16.19-12.51Z"/>
  </g>
  <path class="cls-1" d="M393.22,38.52c0,7.36-4.24,13.72-10.41,16.78-2.5,1.25-5.33,1.95-8.32,1.95s-5.82-.69-8.32-1.95c-4.91-2.44-8.6-6.97-9.9-12.43-.34-1.4-.52-2.85-.52-4.35,0-1.3.14-2.58.39-3.81.95-4.57,3.56-8.55,7.18-11.23h0c3.12-2.32,6.97-3.69,11.16-3.69,9.04,0,16.58,6.4,18.34,14.92.25,1.23.39,2.5.39,3.81Z"/>
  <path class="cls-1" d="M111.81,93.48c-.03.11-.07.22-.11.33l-47.76,131.22h-12.44c-9.69,0-16.44-9.64-13.12-18.74l37.32-102.51c1.76-4.84-1.83-9.97-6.98-9.97l6.82-18.75h23.03c9.58,0,16.29,9.41,13.24,18.42Z"/>
  <path class="cls-1" d="M217.39,93.81h0s-20.46,56.24-20.46,56.24l-6.82,18.75h-12.43c-9.7,0-16.45-9.64-13.13-18.75l16.84-46.26c1.77-4.85-1.82-9.98-6.98-9.98l6.83-18.75h23.02c9.7,0,16.45,9.63,13.13,18.75Z"/>
  <path class="cls-1" d="M362.81,75.07c9.7,0,16.45,9.64,13.13,18.75l-20.46,56.23-6.82,18.75h-12.43c-9.7,0-16.45-9.64-13.13-18.75l16.84-46.26c1.77-4.85-1.82-9.97-6.98-9.97l6.83-18.75h23.02Z"/>
  <path class="cls-1" d="M270.24,93.81h0s-20.46,56.24-20.46,56.24l-6.82,18.75h-12.43c-9.7,0-16.45-9.64-13.13-18.75l16.84-46.26c1.77-4.85-1.82-9.98-6.98-9.98h-9.87l3.48-9.56c2.05-5.52,7.32-9.19,13.22-9.19h23.02c9.7,0,16.45,9.63,13.13,18.75Z"/>
  <path class="cls-1" d="M323.09,93.82l-20.46,56.23-6.82,18.75h-12.43c-9.7,0-16.45-9.64-13.13-18.75l16.84-46.26c1.77-4.85-1.82-9.98-6.98-9.98h-9.87l3.44-9.47c2.03-5.57,7.33-9.28,13.26-9.28h23.02c9.7,0,16.45,9.64,13.13,18.76Z"/>
  <path class="cls-1" d="M164.54,93.81h0s-20.46,56.24-20.46,56.24l-6.82,18.75h-12.43c-9.7,0-16.45-9.64-13.13-18.75l16.84-46.26c1.77-4.85-1.82-9.98-6.98-9.98h-9.86c.04-.11.08-.22.11-.33l3.32-9.14c2.03-5.57,7.33-9.28,13.26-9.28h23.02c9.7,0,16.45,9.63,13.13,18.75Z"/>
  <path class="cls-1" d="M111.81,93.48c-.03.11-.07.22-.11.33h0l.12-.33Z"/>
</svg>