<?xml version="1.0" encoding="UTF-8"?>
<svg id="Layer_1" data-name="Layer 1" xmlns="http://www.w3.org/2000/svg" viewBox="0 0 1180 200">
  <defs>
    <style>
      .cls-1 {
        fill: #a9d8ff;
      }

      .cls-2 {
        fill: #f3f5f7;
      }
    </style>
  </defs>
  <path class="cls-1" d="M140.06,62.69c9.52,0,16.15,9.46,12.89,18.41h0s-34.58,95.01-34.58,95.01h-24c-9.2,0-15.6-9.14-12.45-17.79h0s24.21-66.52,24.21-66.52c1.89-5.2-1.96-10.7-7.49-10.7h0l6.69-18.41h34.73Z"/>
  <path class="cls-1" d="M88.8,80.76c-.04.11-.07.23-.11.34l-28,76.94-6.58,18.07-6.57,18.07h-23.72c-9.34,0-15.85-9.28-12.65-18.07h0s6.58-18.07,6.58-18.07l24.11-66.24c1.89-5.2-1.95-10.71-7.49-10.71l.12-.34,6.57-18.07h34.73c9.4,0,15.98,9.23,13.01,18.07Z"/>
  <path class="cls-1" d="M204.33,62.69c9.52,0,16.15,9.46,12.89,18.41h0s-34.58,95.01-34.58,95.01h-24c-9.2,0-15.6-9.14-12.45-17.79h0s24.21-66.52,24.21-66.52c1.89-5.2-1.96-10.7-7.49-10.7h0l6.69-18.41h34.73Z"/>
  <path class="cls-1" d="M268.61,62.69c9.52,0,16.15,9.46,12.89,18.41h0s-34.58,95.01-34.58,95.01h-24c-9.2,0-15.6-9.14-12.45-17.79h0s24.21-66.52,24.21-66.52c1.89-5.2-1.96-10.7-7.49-10.7h0l6.69-18.41h34.73Z"/>
  <circle class="cls-1" cx="277.96" cy="26.54" r="20.72"/>
  <g>
    <path class="cls-2" d="M387.39,149.97v6.8h-43.36v-59.87h42v6.8h-34.74v19.32h27.03v6.8h-27.03v20.14h36.1Z"/>
    <path class="cls-2" d="M441.35,151.06l-.45,5.71c-1.27.45-3.17.91-5.44.91-4.44,0-7.35-1.63-8.16-6.71-2.9,4.26-8.8,6.71-14.6,6.71-8.53,0-15.42-3.99-15.42-12.15,0-6.8,5.99-12.16,17.69-14.15l12.06-2v-2.54c0-5.99-3.81-9.98-10.61-9.98-5.99,0-10.52,2.9-12.97,8.62l-5.35-3.9c2.36-6.71,9.53-11.07,18.32-11.07,10.34,0,17.87,4.9,17.87,15.42v22.31c0,2.18.91,3.26,3.45,3.26,1.18,0,2.54-.18,3.63-.45ZM427.02,141.53v-6.26l-10.16,1.9c-7.98,1.45-12.06,4.08-12.06,8.35,0,3.81,3.08,5.81,8.26,5.81,7.26,0,13.97-3.81,13.97-9.8Z"/>
    <path class="cls-2" d="M447.79,147.43l5.9-4.08c2.18,5.53,7.8,7.98,14.33,7.98,7.44,0,10.98-2.99,10.98-6.71,0-3.36-2.81-5.35-11.88-6.98-12.88-2.36-17.6-5.9-17.6-13.51s6.8-13.61,17.87-13.61c9.7,0,15.42,3.45,17.96,10.88l-6.17,3.63c-1.99-5.99-6.08-8.16-11.79-8.16-6.08,0-10.61,3.27-10.61,6.62,0,3.9,2.99,5.9,12.24,7.44,12.7,2.09,17.23,5.9,17.23,13.33,0,7.89-7.35,13.42-18.96,13.42-8.34,0-16.05-3.27-19.5-10.25Z"/>
    <path class="cls-2" d="M514.18,164.39c-3.54,8.89-7.62,11.88-14.33,11.88-4.54,0-7.44-1.09-9.98-3.81l2.54-6.17c2.09,2.9,4.81,3.63,7.35,3.63,3.17,0,5.99-1.36,8.26-7.35l2.36-5.9-18.96-45.26h8.26l11.34,29.57,2.81,8.07,3.26-8.98,10.61-28.66h7.8l-21.32,52.97Z"/>
    <path class="cls-2" d="M616.76,115.14c0,11.25-8.07,18.23-20.14,18.23h-13.88v23.4h-7.26v-59.87h21.13c12.06,0,20.14,6.98,20.14,18.23ZM609.14,115.14c0-7.44-4.17-11.43-13.61-11.43h-12.79v22.86h12.79c9.43,0,13.61-3.99,13.61-11.43Z"/>
    <path class="cls-2" d="M688.69,156.77h-6.89v-37.64l.82-15.78h-.09l-19.68,53.43h-6.17l-19.68-53.43h-.09l.81,15.78v37.64h-6.89v-59.87h11.16l13.15,36.37,4.54,14.97h.18l4.63-14.88,13.06-36.46h11.16v59.87Z"/>
    <path class="cls-2" d="M715.53,156.77h-7.26v-59.87h7.26v59.87Z"/>
    <path class="cls-2" d="M808.41,108.7l-6.26,5.08c-3.63-7.89-7.98-10.98-16.78-10.98-9.52,0-14.78,4.44-14.78,10.16s3.99,8.44,16.6,10.61c16.05,2.72,21.77,7.8,21.77,17.05,0,10.25-9.16,17.05-23.13,17.05-12.7,0-21.04-5.53-25.22-12.97l6.26-5.08c3.17,6.89,9.34,11.25,19.14,11.25,9.25,0,15.42-3.45,15.42-9.89,0-5.17-3.9-8.16-16.51-10.34-16.15-2.81-21.95-7.71-21.95-16.87,0-9.61,8.44-17.78,22.31-17.78,10.98,0,18.5,4.35,23.13,12.7Z"/>
    <path class="cls-2" d="M863.92,134.1c0,14.69-8.26,23.58-21.95,23.58s-21.95-8.89-21.95-23.58,8.25-23.58,21.95-23.58,21.95,8.89,21.95,23.58ZM827.27,134.1c0,10.79,5.53,17.33,14.69,17.33s14.69-6.53,14.69-17.33-5.53-17.32-14.69-17.32-14.69,6.53-14.69,17.32Z"/>
    <path class="cls-2" d="M884.87,144.62c0,4.63,1.18,6.08,4.9,6.08,2.45,0,3.99-.27,6.62-1.27l-1.18,6.98c-1.9.82-4.35,1.27-6.71,1.27-7.35,0-10.88-3.9-10.88-12.15v-54.97h7.26v54.06Z"/>
    <path class="cls-2" d="M945,111.42v45.35h-6.35l-.45-6.89c-3.18,5.44-8.98,7.8-16.24,7.8-8.98,0-16.69-4.63-16.69-16.6v-29.66h7.26v27.76c0,9.34,4.17,12.16,10.7,12.16,7.71,0,14.51-4.54,14.51-15.24v-24.67h7.26Z"/>
    <path class="cls-2" d="M989.62,153.6c-2.81,2.54-6.71,4.08-11.7,4.08-6.71,0-12.52-3.36-12.61-12.15v-27.85h-9.07v-6.26h9.07v-10.88l7.26-2v12.88h16.78v6.26h-16.78v26.58c0,4.44,2.81,6.62,6.8,6.62,3.26,0,5.62-1.27,7.71-3.36l2.54,6.08Z"/>
    <path class="cls-2" d="M998.06,97.27c0-3.26,2.18-5.44,5.44-5.44s5.44,2.18,5.44,5.44-2.18,5.44-5.44,5.44-5.44-2.18-5.44-5.44ZM1007.13,156.77h-7.26v-45.35h7.26v45.35Z"/>
    <path class="cls-2" d="M1065.09,134.1c0,14.69-8.26,23.58-21.95,23.58s-21.95-8.89-21.95-23.58,8.25-23.58,21.95-23.58,21.95,8.89,21.95,23.58ZM1028.44,134.1c0,10.79,5.53,17.33,14.69,17.33s14.69-6.53,14.69-17.33-5.53-17.32-14.69-17.32-14.69,6.53-14.69,17.32Z"/>
    <path class="cls-2" d="M1118.87,127.75v29.03h-7.26v-26.49c0-10.07-4.9-13.42-11.16-13.42-6.62,0-14.06,4.17-14.06,15.78v24.13h-7.26v-45.35h6.35l.45,7.08c3.17-5.71,8.98-7.98,15.24-7.98,9.71,0,17.69,5.53,17.69,17.23Z"/>
    <path class="cls-2" d="M1131.2,147.43l5.9-4.08c2.18,5.53,7.8,7.98,14.33,7.98,7.44,0,10.98-2.99,10.98-6.71,0-3.36-2.81-5.35-11.88-6.98-12.88-2.36-17.6-5.9-17.6-13.51s6.8-13.61,17.87-13.61c9.7,0,15.42,3.45,17.96,10.88l-6.17,3.63c-1.99-5.99-6.08-8.16-11.79-8.16-6.08,0-10.61,3.27-10.61,6.62,0,3.9,2.99,5.9,12.24,7.44,12.7,2.09,17.23,5.9,17.23,13.33,0,7.89-7.35,13.42-18.96,13.42-8.34,0-16.05-3.27-19.5-10.25Z"/>
  </g>
</svg>